<svg width="32" height="32" viewBox="0 0 32 32" fill="none" xmlns="http://www.w3.org/2000/svg">
<path d="M21.8331 4.33313C23.3789 4.33774 24.8601 4.95385 25.9531 6.04689C27.0461 7.13993 27.6623 8.62109 27.6669 10.1669V21.8331C27.6623 23.3789 27.0461 24.8601 25.9531 25.9531C24.8601 27.0462 23.3789 27.6623 21.8331 27.6669H10.1669C8.62109 27.6623 7.13993 27.0462 6.04689 25.9531C4.95385 24.8601 4.33774 23.3789 4.33312 21.8331V10.1669C4.33774 8.62109 4.95385 7.13993 6.04689 6.04689C7.13993 4.95385 8.62109 4.33774 10.1669 4.33313H21.8331V4.33313ZM21.8331 2H10.1669C5.675 2 2 5.675 2 10.1669V21.8331C2 26.325 5.675 30 10.1669 30H21.8331C26.325 30 30 26.325 30 21.8331V10.1669C30 5.675 26.325 2 21.8331 2V2Z" fill="white"/>
<path d="M23.5831 10.167C23.237 10.167 22.8986 10.0644 22.6109 9.87207C22.3231 9.67977 22.0988 9.40646 21.9663 9.08669C21.8339 8.76692 21.7992 8.41505 21.8667 8.07558C21.9342 7.73612 22.1009 7.4243 22.3457 7.17956C22.5904 6.93481 22.9022 6.76814 23.2417 6.70062C23.5812 6.63309 23.933 6.66775 24.2528 6.8002C24.5726 6.93266 24.8459 7.15696 25.0382 7.44475C25.2305 7.73253 25.3331 8.07088 25.3331 8.41699C25.3336 8.64694 25.2887 8.87473 25.2009 9.08727C25.1131 9.29982 24.9842 9.49293 24.8216 9.65553C24.659 9.81813 24.4659 9.94702 24.2534 10.0348C24.0408 10.1226 23.813 10.1675 23.5831 10.167V10.167ZM16 11.3332C16.923 11.3332 17.8253 11.607 18.5927 12.1198C19.3602 12.6326 19.9584 13.3614 20.3116 14.2142C20.6648 15.0669 20.7572 16.0053 20.5772 16.9106C20.3971 17.8159 19.9526 18.6474 19.3 19.3001C18.6473 19.9528 17.8157 20.3972 16.9104 20.5773C16.0051 20.7574 15.0668 20.665 14.214 20.3117C13.3613 19.9585 12.6324 19.3604 12.1196 18.5929C11.6068 17.8254 11.3331 16.9231 11.3331 16.0001C11.3344 14.7628 11.8265 13.5765 12.7015 12.7016C13.5764 11.8267 14.7626 11.3346 16 11.3332V11.3332ZM16 9.00012C14.6155 9.00012 13.2621 9.41066 12.111 10.1798C10.9598 10.949 10.0626 12.0423 9.53282 13.3213C9.003 14.6004 8.86438 16.0079 9.13448 17.3658C9.40457 18.7236 10.0713 19.9709 11.0502 20.9499C12.0292 21.9288 13.2765 22.5955 14.6343 22.8656C15.9922 23.1357 17.3997 22.9971 18.6788 22.4673C19.9578 21.9375 21.0511 21.0403 21.8203 19.8891C22.5894 18.738 23 17.3846 23 16.0001C23 14.1436 22.2625 12.3631 20.9497 11.0504C19.637 9.73762 17.8565 9.00012 16 9.00012V9.00012Z" fill="white"/>
</svg>
