<svg width="241" height="152" viewBox="0 0 241 152" fill="none" xmlns="http://www.w3.org/2000/svg">
<g clip-path="url(#clip0_4:17)">
<path d="M217.05 311.01H61.74C58.527 311.08 55.4094 309.916 53.0298 307.755C50.6502 305.595 49.19 302.605 48.95 299.4L37.95 81.96C35.69 37.35 73.1 0.0099926 120.04 0.0099926H158.83C205.78 0.0099926 243.18 37.35 240.92 81.96L229.83 299.4C229.52 305.9 223.89 311.01 217.05 311.01Z" fill="#E0A990"/>
<g opacity="0.2">
<path opacity="0.2" d="M136.83 147.01C136.46 150.18 135.98 153.33 135.41 156.46C134.84 159.59 134.25 162.71 133.57 165.81C132.89 168.91 132.17 172 131.45 175.09C130.73 178.18 129.91 181.25 129.05 184.3L127.83 182.75C129.33 182.75 130.83 182.85 132.33 182.92C133.83 182.99 135.33 183.07 136.83 183.18C139.83 183.37 142.83 183.62 145.83 184.01C142.83 184.39 139.83 184.64 136.83 184.83C135.33 184.94 133.83 185.02 132.33 185.09C130.83 185.16 129.33 185.23 127.83 185.26H126.28L126.61 183.68C127.24 180.57 127.98 177.48 128.7 174.39C129.42 171.3 130.22 168.23 131.08 165.17C131.94 162.11 132.8 159.06 133.74 156.02C134.68 152.98 135.69 149.99 136.83 147.01Z" fill="black"/>
</g>
<path d="M108.739 143.885C114.405 142.112 117.294 135.227 115.192 128.507C113.09 121.786 106.792 117.775 101.126 119.548C95.4596 121.32 92.5703 128.205 94.6725 134.926C96.7748 141.646 103.072 145.657 108.739 143.885Z" fill="#F2F2F2"/>
<path d="M106.484 142.263C109.817 142.125 112.387 138.807 112.224 134.85C112.061 130.893 109.226 127.797 105.893 127.935C102.56 128.072 99.9907 131.391 100.154 135.347C100.317 139.304 103.151 142.4 106.484 142.263Z" fill="#3A4851"/>
<path opacity="0.3" d="M108.44 133.35C110.113 133.35 111.47 131.993 111.47 130.32C111.47 128.647 110.113 127.29 108.44 127.29C106.767 127.29 105.41 128.647 105.41 130.32C105.41 131.993 106.767 133.35 108.44 133.35Z" fill="white"/>
<path d="M181.881 135.55C183.983 128.829 181.094 121.944 175.428 120.172C169.761 118.399 163.464 122.41 161.361 129.131C159.259 135.851 162.148 142.736 167.815 144.509C173.481 146.281 179.779 142.27 181.881 135.55Z" fill="#F2F2F2"/>
<path d="M176.38 135.979C176.543 132.022 173.973 128.704 170.64 128.566C167.307 128.429 164.473 131.525 164.31 135.481C164.147 139.438 166.717 142.757 170.05 142.894C173.383 143.031 176.217 139.935 176.38 135.979Z" fill="#3A4851"/>
<path opacity="0.3" d="M168.15 134.03C169.823 134.03 171.18 132.673 171.18 131C171.18 129.327 169.823 127.97 168.15 127.97C166.477 127.97 165.12 129.327 165.12 131C165.12 132.673 166.477 134.03 168.15 134.03Z" fill="white"/>
<path d="M160.17 112.4C161.58 111.73 162.83 111.24 164.17 110.75C165.51 110.26 166.84 109.84 168.17 109.47C170.878 108.711 173.649 108.199 176.45 107.94C179.238 107.68 182.048 107.808 184.8 108.32C186.165 108.606 187.503 109.007 188.8 109.52C190.052 110.069 191.248 110.739 192.37 111.52C191.155 110.955 189.885 110.516 188.58 110.21C187.294 109.935 185.985 109.778 184.67 109.74C182.063 109.711 179.464 110.047 176.95 110.74C174.448 111.419 172.014 112.33 169.68 113.46C168.51 114.01 167.36 114.62 166.25 115.26C165.14 115.9 164 116.6 163.07 117.26L160.17 112.4Z" fill="#5B3B24"/>
<path d="M116.75 117.96C115.83 117.29 114.67 116.57 113.58 115.96C112.49 115.35 111.31 114.72 110.15 114.16C107.813 113.03 105.376 112.119 102.87 111.44C100.36 110.747 97.7641 110.411 95.16 110.44C93.8424 110.479 92.5308 110.633 91.24 110.9C89.9397 111.21 88.6735 111.649 87.46 112.21C88.5771 111.421 89.7736 110.751 91.03 110.21C92.323 109.686 93.6622 109.284 95.03 109.01C97.7852 108.493 100.599 108.365 103.39 108.63C106.188 108.881 108.956 109.39 111.66 110.15C113.01 110.52 114.36 110.95 115.66 111.43C117.021 111.915 118.356 112.469 119.66 113.09L116.75 117.96Z" fill="#5B3B24"/>
<path d="M240.94 76.11C240.773 69.7892 239.802 63.5154 238.05 57.44C228.52 24.44 196.78 -1.90735e-06 158.79 -1.90735e-06H120.01C82.01 -1.90735e-06 50.28 24.47 40.75 57.44C38.9879 63.5141 38.0067 69.7879 37.83 76.11C37.7833 78.0367 37.8067 79.9867 37.9 81.96L48.9 299.4C49.23 305.9 54.9 311 61.7 311H217C223.84 311 229.47 305.9 229.8 299.4L240.8 81.96C240.947 79.9933 240.993 78.0433 240.94 76.11ZM210.09 126.91C208.47 134.85 201.97 141.33 193.24 143.68L147.36 156.01C142.728 157.25 137.852 157.25 133.22 156.01L87.35 143.68C78.62 141.33 72.12 134.85 70.5 126.91C70.2431 125.653 70.1125 124.373 70.11 123.09C70.11 112.74 78.59 103.59 90.54 101.88L130.83 96.12C137.131 95.2162 143.529 95.2162 149.83 96.12L190.11 101.88C203.46 103.8 212.49 115.08 210.09 126.91Z" fill="#202123"/>
<path d="M240.94 76.11H37.83C37.9969 69.7892 38.9681 63.5154 40.72 57.44H238.02C239.782 63.5141 240.763 69.7879 240.94 76.11Z" fill="#DD3C57"/>
<path d="M43.28 66.71C41.4896 67.0096 39.6747 67.1369 37.86 67.09C36.5339 67.0853 35.223 67.3721 34.02 67.93C20.47 74.01 18.34 111.78 18.34 111.78V302.44H0C0 302.44 9.34 149.44 8 111.78C6.94 81.78 25.77 67.2 33.47 62.53C34.501 61.8838 35.5696 61.2994 36.67 60.78C38.8328 61.5332 40.9355 62.4492 42.96 63.52L43.28 66.71Z" fill="#DD3C57"/>
<path d="M42.83 62.07C40.22 66.32 38.38 72.13 37.09 78.01C35.4243 86.0577 34.421 94.2284 34.09 102.44V293.11H15.75C15.75 293.11 25.08 140.11 23.75 102.44C23.2 86.76 28.07 75.3 33.95 67.26C36.4039 63.9151 39.236 60.8648 42.39 58.17C42.3956 58.2432 42.3956 58.3168 42.39 58.39L42.83 62.07Z" fill="#DD3C57"/>
<path d="M41.91 77.58L37.54 78.03C37.384 78.05 37.226 78.05 37.07 78.03C36.4979 77.9795 35.9613 77.7312 35.5525 77.3279C35.1437 76.9245 34.8882 76.3913 34.83 75.82L34.02 67.95L33.95 67.28L33.47 62.55L33.14 59.36C33.0757 58.708 33.272 58.057 33.6861 57.5492C34.1002 57.0415 34.6983 56.7182 35.35 56.65L39.72 56.2C40.3345 56.1393 40.9494 56.311 41.4436 56.6811C41.9379 57.0513 42.2755 57.5932 42.39 58.2C42.3956 58.2732 42.3956 58.3468 42.39 58.42L42.77 62.1L42.92 63.55L43.24 66.74L44.07 74.88C44.1323 75.5227 43.9415 76.1643 43.5381 76.6685C43.1348 77.1727 42.5507 77.4997 41.91 77.58V77.58Z" fill="#C93957"/>
</g>
<defs>
<clipPath id="clip0_4:17">
<rect width="241" height="152" fill="white"/>
</clipPath>
</defs>
</svg>
